<svg xmlns="http://www.w3.org/2000/svg" width="681.637" height="488.611" viewBox="0 0 681.637 488.611">
  <g id="Group_17897" data-name="Group 17897" transform="translate(-1040 -278)">
    <g id="Group_13360" data-name="Group 13360" transform="translate(946.645 244.219)" style="isolation: isolate">
      <g id="OBJECTS" transform="translate(93.355 33.781)">
        <g id="Group_13355" data-name="Group 13355">
          <g id="Group_13337" data-name="Group 13337" transform="translate(387.129 402.712)">
            <path id="Path_12125" data-name="Path 12125" d="M442.807,445.663,632.649,397.3l104.666,30.718L558.3,483.2Z" transform="translate(-442.807 -397.3)" fill="#dadaf2"/>
            <path id="Path_12126" data-name="Path 12126" d="M543.268,428.65l85.083-21.675,46.909,13.767L595.03,445.472Z" transform="translate(-431.976 -396.257)" fill="#aeaecc"/>
          </g>
          <g id="Group_13338" data-name="Group 13338" transform="translate(275.959 400.908)">
            <path id="Path_12127" data-name="Path 12127" d="M342.456,444.034,532.3,395.671l104.666,30.718L457.95,481.569Z" transform="translate(-342.456 -395.671)" fill="#e9e9fe"/>
            <path id="Path_12128" data-name="Path 12128" d="M446.124,429.953l85.083-21.675,46.909,13.767-80.231,24.731Z" transform="translate(-331.279 -394.312)" fill="#dadaf2"/>
          </g>
          <path id="Path_12129" data-name="Path 12129" d="M210.645,406.9S150.01,418.808,144.6,360.34s83.372-46.558,54.138-105.027-95.282-40.062-93.116-134.262S214.976,32.267,232.3,68s77.958,53.054,129.929,28.152S488.911,21.439,548.463,36.6s77.958,42.228,74.71,86.62S602.6,216.334,641.58,247.734s73.627,103.944,0,145.089c0,0-23.82,13.906-38.98,15.074Z" transform="translate(-92.038 -33.781)" fill="#f7f8ff"/>
          <rect id="Rectangle_4792" data-name="Rectangle 4792" width="398.52" height="294.876" transform="translate(116.441 78.609)" fill="#d7dcff"/>
          <rect id="Rectangle_4793" data-name="Rectangle 4793" width="398.52" height="15.721" transform="translate(116.441 78.609)" fill="#91cdf8"/>
          <rect id="Rectangle_4794" data-name="Rectangle 4794" width="14.076" height="279.155" transform="translate(116.441 94.33)" fill="#2b284f"/>
          <rect id="Rectangle_4795" data-name="Rectangle 4795" width="16.309" height="279.155" transform="translate(498.652 94.33)" fill="#2b284f"/>
          <path id="Path_12130" data-name="Path 12130" d="M210.205,112.158a3.835,3.835,0,1,1-3.835-3.835A3.835,3.835,0,0,1,210.205,112.158Z" transform="translate(-81.583 -25.744)" fill="#2b284f"/>
          <path id="Path_12131" data-name="Path 12131" d="M220.708,112.158a3.835,3.835,0,1,1-3.834-3.835A3.834,3.834,0,0,1,220.708,112.158Z" transform="translate(-80.451 -25.744)" fill="#2b284f"/>
          <path id="Path_12132" data-name="Path 12132" d="M231.261,112.158a3.835,3.835,0,1,1-3.834-3.835A3.835,3.835,0,0,1,231.261,112.158Z" transform="translate(-79.313 -25.744)" fill="#2b284f"/>
          <rect id="Rectangle_4796" data-name="Rectangle 4796" width="246.145" height="161.691" transform="translate(190.454 146.847)" fill="#fff"/>
          <rect id="Rectangle_4797" data-name="Rectangle 4797" width="368.135" height="13.874" transform="translate(130.517 94.33)" fill="#484777"/>
          <g id="Group_13339" data-name="Group 13339" transform="translate(174.284 15.202)">
            <path id="Path_12133" data-name="Path 12133" d="M258.849,55.155h10.9s-1.363,11.2,8.778,13.47l-12.411,32.239L250.677,69.382S259.758,66.657,258.849,55.155Z" transform="translate(-250.677 -46.679)" fill="#2b284f"/>
            <rect id="Rectangle_4798" data-name="Rectangle 4798" width="10.897" height="5.146" transform="translate(8.173)" fill="#2b284f"/>
            <line id="Line_4" data-name="Line 4" x1="0.908" y1="31.935" transform="translate(14.529 22.249)" fill="none" stroke="#d7dcff" stroke-miterlimit="10" stroke-width="1"/>
            <circle id="Ellipse_2" data-name="Ellipse 2" cx="2.043" cy="2.043" r="2.043" transform="translate(12.516 18.897)" fill="#d7dcff"/>
          </g>
          <g id="Group_13340" data-name="Group 13340" transform="translate(114.651 38.185)">
            <path id="Path_12134" data-name="Path 12134" d="M198.931,90.494l72.763,8.778L354.029,69.91" transform="translate(-196.623 -68.071)" fill="none" stroke="#4549c3" stroke-miterlimit="10" stroke-width="1"/>
            <circle id="Ellipse_3" data-name="Ellipse 3" cx="1.362" cy="1.362" r="1.362" transform="translate(0 21.06)" fill="#4549c3"/>
            <circle id="Ellipse_4" data-name="Ellipse 4" cx="1.362" cy="1.362" r="1.362" transform="translate(156.801)" fill="#4549c3"/>
          </g>
          <path id="Path_12135" data-name="Path 12135" d="M558.2,300.315S587,294.54,600.718,270s10.828-48.737-7.219-64.069-21.655-24.236-18.768-33.859" transform="translate(-43.237 -18.871)" fill="none" stroke="#4549c3" stroke-miterlimit="10" stroke-width="1" stroke-dasharray="8"/>
          <path id="Path_12136" data-name="Path 12136" d="M204.525,183.046s-23.82-5.774-44.031,7.941-28.152,46.2,0,75.792,39.7,37.535,44.031,51.25" transform="translate(-88.085 -17.818)" fill="none" stroke="#4549c3" stroke-miterlimit="10" stroke-width="1" stroke-dasharray="8"/>
          <g id="Group_13341" data-name="Group 13341" transform="translate(182.354 349.326)">
            <path id="Path_12137" data-name="Path 12137" d="M257.962,408.646s12.271-1.975,16.6-12.8,5.053-14.436,5.053-22.738,4.692-12.992,9.023-14.8" transform="translate(-257.962 -348.118)" fill="none" stroke="#f36290" stroke-linecap="round" stroke-linejoin="round" stroke-width="1"/>
            <path id="Path_12138" data-name="Path 12138" d="M269.7,399.379s-10.2-6.986-6.99-12.628S273.863,391.038,269.7,399.379Z" transform="translate(-257.517 -345.23)" fill="#f36290"/>
            <path id="Path_12139" data-name="Path 12139" d="M275.4,387.174s4.96-11.325,11.1-9.224S284.372,389.708,275.4,387.174Z" transform="translate(-256.082 -346.028)" fill="#f36290"/>
            <path id="Path_12140" data-name="Path 12140" d="M278.4,377.21s-11.987-3.032-10.922-9.436S279.428,367.944,278.4,377.21Z" transform="translate(-256.943 -347.373)" fill="#f36290"/>
            <path id="Path_12141" data-name="Path 12141" d="M284.591,359.8s3.44-11.876,9.8-10.594S293.818,361.142,284.591,359.8Z" transform="translate(-255.091 -349.11)" fill="#f36290"/>
          </g>
          <g id="Group_13342" data-name="Group 13342" transform="translate(537.583 324.466)">
            <path id="Path_12142" data-name="Path 12142" d="M578.619,386.206s12.271-1.976,16.6-12.8,5.053-14.436,5.053-22.737,4.692-12.994,9.023-14.8" transform="translate(-578.619 -325.677)" fill="none" stroke="#f36290" stroke-linecap="round" stroke-linejoin="round" stroke-width="1"/>
            <path id="Path_12143" data-name="Path 12143" d="M590.357,376.939s-10.2-6.987-6.99-12.63S594.52,368.6,590.357,376.939Z" transform="translate(-578.174 -322.789)" fill="#f36290"/>
            <path id="Path_12144" data-name="Path 12144" d="M596.057,364.733s4.96-11.325,11.1-9.224S605.029,367.267,596.057,364.733Z" transform="translate(-576.739 -323.587)" fill="#f36290"/>
            <path id="Path_12145" data-name="Path 12145" d="M599.059,354.769s-11.987-3.032-10.922-9.436S600.085,345.5,599.059,354.769Z" transform="translate(-577.6 -324.932)" fill="#f36290"/>
            <path id="Path_12146" data-name="Path 12146" d="M605.248,337.359s3.44-11.876,9.8-10.594S614.475,338.7,605.248,337.359Z" transform="translate(-575.748 -326.669)" fill="#f36290"/>
          </g>
          <g id="Group_13343" data-name="Group 13343" transform="translate(78.491 348.998)">
            <ellipse id="Ellipse_5" data-name="Ellipse 5" cx="30.678" cy="4.692" rx="30.678" ry="4.692" transform="translate(0 56.492)" fill="#72c0e3"/>
            <ellipse id="Ellipse_6" data-name="Ellipse 6" cx="30.678" cy="4.692" rx="30.678" ry="4.692" transform="translate(61.356 56.492)" fill="#72c0e3"/>
            <path id="Path_12147" data-name="Path 12147" d="M279.231,391.157c.609,2.518-12.248,7.788-28.717,11.769s-30.312,5.167-30.921,2.648,12.248-7.788,28.717-11.769S278.622,388.638,279.231,391.157Z" transform="translate(-158.237 -344.39)" fill="#72c0e3"/>
            <path id="Path_12148" data-name="Path 12148" d="M274.924,380.162c1.121,2.336-10.356,10.169-25.634,17.494s-28.571,11.37-29.692,9.032,10.357-10.169,25.635-17.493S273.8,377.826,274.924,380.162Z" transform="translate(-158.243 -345.504)" fill="#72c0e3"/>
            <path id="Path_12149" data-name="Path 12149" d="M267.4,369.343c1.625,2.018-7.756,12.268-20.953,22.894s-25.213,17.6-26.838,15.584,7.756-12.268,20.953-22.893S265.775,367.324,267.4,369.343Z" transform="translate(-158.253 -346.637)" fill="#72c0e3"/>
            <path id="Path_12150" data-name="Path 12150" d="M257.481,360.472c2.039,1.6-4.781,13.7-15.235,27.038s-20.581,22.848-22.62,21.248,4.781-13.7,15.235-27.037S255.442,358.873,257.481,360.472Z" transform="translate(-158.271 -347.575)" fill="#72c0e3"/>
            <path id="Path_12151" data-name="Path 12151" d="M244.662,353.47c2.366,1.056-1.312,14.455-8.216,29.928s-14.419,27.16-16.786,26.1,1.313-14.455,8.216-29.927S242.3,352.415,244.662,353.47Z" transform="translate(-158.305 -348.318)" fill="#72c0e3"/>
            <path id="Path_12152" data-name="Path 12152" d="M230.518,349.517c2.551.454,2.21,14.345-.761,31.026s-7.448,29.835-10,29.379-2.21-14.344.761-31.024S227.966,349.063,230.518,349.517Z" transform="translate(-158.402 -348.738)" fill="#72c0e3"/>
            <path id="Path_12153" data-name="Path 12153" d="M215.706,348.815c2.585-.195,5.713,13.343,6.988,30.238s.214,30.749-2.371,30.944-5.712-13.343-6.987-30.238S213.123,349.01,215.706,348.815Z" transform="translate(-158.968 -348.813)" fill="#72c0e3"/>
            <ellipse id="Ellipse_7" data-name="Ellipse 7" cx="4.692" cy="30.678" rx="4.692" ry="30.678" transform="translate(38.372 4.102) rotate(-17.559)" fill="#72c0e3"/>
            <path id="Path_12154" data-name="Path 12154" d="M188.217,358.444c2.135-1.47,11.655,8.65,21.266,22.6s15.672,26.457,13.538,27.926-11.654-8.65-21.266-22.6S186.083,359.914,188.217,358.444Z" transform="translate(-161.664 -347.79)" fill="#72c0e3"/>
            <path id="Path_12155" data-name="Path 12155" d="M177.115,368.556c1.662-1.989,13.547,5.208,26.548,16.073s22.191,21.287,20.529,23.274-13.547-5.208-26.548-16.073S175.453,370.544,177.115,368.556Z" transform="translate(-162.836 -346.72)" fill="#72c0e3"/>
            <path id="Path_12156" data-name="Path 12156" d="M169.371,380.772c1.091-2.35,14.433,1.532,29.8,8.672s26.937,14.831,25.844,17.181-14.433-1.532-29.8-8.671S168.279,383.121,169.371,380.772Z" transform="translate(-163.658 -345.441)" fill="#72c0e3"/>
            <path id="Path_12157" data-name="Path 12157" d="M165.5,392.286c.556-2.531,14.422-1.633,30.969,2.007s29.511,8.641,28.954,11.171S211,407.1,194.456,403.457,164.944,394.816,165.5,392.286Z" transform="translate(-164.069 -344.281)" fill="#72c0e3"/>
          </g>
          <g id="Group_13344" data-name="Group 13344" transform="translate(479.166 343.156)">
            <path id="Path_12158" data-name="Path 12158" d="M587.242,399.227c0,2.591-13.735,4.692-30.678,4.692s-30.678-2.1-30.678-4.692,13.735-4.693,30.678-4.693S587.242,396.636,587.242,399.227Z" transform="translate(-525.887 -338.042)" fill="#7f85fc"/>
            <path id="Path_12159" data-name="Path 12159" d="M642.627,399.227c0,2.591-13.735,4.692-30.678,4.692s-30.679-2.1-30.679-4.692,13.736-4.693,30.679-4.693S642.627,396.636,642.627,399.227Z" transform="translate(-519.916 -338.042)" fill="#7f85fc"/>
            <path id="Path_12160" data-name="Path 12160" d="M640.911,385.884c.609,2.519-12.248,7.788-28.717,11.769s-30.312,5.167-30.921,2.649,12.248-7.788,28.717-11.769S640.3,383.365,640.911,385.884Z" transform="translate(-519.918 -339.117)" fill="#7f85fc"/>
            <path id="Path_12161" data-name="Path 12161" d="M636.6,374.889c1.121,2.336-10.356,10.169-25.634,17.495s-28.571,11.368-29.692,9.032,10.357-10.169,25.635-17.495S635.484,372.553,636.6,374.889Z" transform="translate(-519.923 -340.231)" fill="#7f85fc"/>
            <ellipse id="Ellipse_8" data-name="Ellipse 8" cx="30.678" cy="4.692" rx="30.678" ry="4.692" transform="matrix(0.779, -0.627, 0.627, 0.779, 58.413, 57.53)" fill="#7f85fc"/>
            <ellipse id="Ellipse_9" data-name="Ellipse 9" cx="30.678" cy="4.692" rx="30.678" ry="4.692" transform="translate(57.663 58.289) rotate(-51.905)" fill="#7f85fc"/>
            <path id="Path_12162" data-name="Path 12162" d="M606.342,348.2c2.366,1.056-1.312,14.455-8.216,29.928s-14.419,27.159-16.786,26.1,1.313-14.455,8.217-29.928S603.976,347.143,606.342,348.2Z" transform="translate(-519.986 -343.045)" fill="#7f85fc"/>
            <path id="Path_12163" data-name="Path 12163" d="M592.2,344.245c2.551.454,2.21,14.344-.761,31.024s-7.448,29.835-10,29.38-2.21-14.345.761-31.025S589.646,343.79,592.2,344.245Z" transform="translate(-520.082 -343.465)" fill="#7f85fc"/>
            <path id="Path_12164" data-name="Path 12164" d="M577.387,343.542c2.583-.195,5.712,13.344,6.987,30.238s.214,30.75-2.371,30.945-5.712-13.344-6.987-30.238S574.8,343.737,577.387,343.542Z" transform="translate(-520.648 -343.54)" fill="#7f85fc"/>
            <path id="Path_12165" data-name="Path 12165" d="M564.662,345.969c2.47-.782,8.618,11.68,13.729,27.833s7.252,29.882,4.781,30.664-8.617-11.68-13.728-27.833S562.191,346.751,564.662,345.969Z" transform="translate(-521.817 -343.282)" fill="#7f85fc"/>
            <ellipse id="Ellipse_10" data-name="Ellipse 10" cx="4.692" cy="30.678" rx="4.692" ry="30.678" transform="matrix(0.824, -0.567, 0.567, 0.824, 22.689, 13.316)" fill="#7f85fc"/>
            <path id="Path_12166" data-name="Path 12166" d="M538.795,363.283c1.662-1.989,13.548,5.208,26.548,16.074s22.191,21.286,20.529,23.274-13.547-5.209-26.547-16.074S537.133,365.272,538.795,363.283Z" transform="translate(-524.516 -341.447)" fill="#7f85fc"/>
            <path id="Path_12167" data-name="Path 12167" d="M531.051,375.5c1.091-2.351,14.433,1.532,29.8,8.671S587.786,399,586.693,401.353s-14.433-1.532-29.8-8.672S529.959,377.849,531.051,375.5Z" transform="translate(-525.338 -340.168)" fill="#7f85fc"/>
            <path id="Path_12168" data-name="Path 12168" d="M527.182,387.013c.556-2.531,14.422-1.632,30.969,2.007s29.511,8.641,28.954,11.172-14.422,1.632-30.969-2.007S526.624,389.543,527.182,387.013Z" transform="translate(-525.749 -339.008)" fill="#7f85fc"/>
          </g>
          <g id="Group_13345" data-name="Group 13345" transform="translate(123.939 355.273)">
            <path id="Path_12169" data-name="Path 12169" d="M235.674,416.355s-17.6-1.8-25.513-10.106-5.084-11.91,0-12.992,8.535,1.082,4.283-7.219-5.854-12.271,0-12.632,8.741,4.332,11.268,1.444-.361-14.8,8.662-19.128,14.73,3.248,8.989,13.354-2.131,12.631,4.726,11.549,12.229,4.332,8.822,7.58-14.6,5.774-10.626,7.94,13.614,2.527,11.68,6.857S239.14,414.912,235.674,416.355Z" transform="translate(-205.232 -354.477)" fill="#7f85fc"/>
            <path id="Path_12170" data-name="Path 12170" d="M229.235,376.777s-3.751,21.072,3.949,37.174" transform="translate(-202.742 -352.073)" fill="none" stroke="#3c46b6" stroke-linecap="round" stroke-linejoin="round" stroke-width="1"/>
          </g>
          <path id="Path_12171" data-name="Path 12171" d="M287.363,287.462s2.237-26.739,11.861-36.709,21.174-3.326,26.467,5.623,14.333-30.03,31.709-44.467,28.443,1.685,36.144,22.257,29.735,15.279,40.372-3.49,13.524-31.279,30.367-29.354,14.436,86.138,14.436,86.138Z" transform="translate(-72.438 -15.738)" fill="#dadaf2"/>
          <path id="Path_12172" data-name="Path 12172" d="M300.162,287.462s2.237-26.739,11.861-36.709,21.174-3.326,26.467,5.623,14.333-30.03,31.709-44.467,28.444,1.685,36.144,22.257,29.736,15.279,40.372-3.49,13.525-31.279,30.367-29.354,14.437,86.138,14.437,86.138" transform="translate(-71.058 -15.738)" fill="none" stroke="#3c46b6" stroke-miterlimit="10" stroke-width="1"/>
          <g id="Group_13347" data-name="Group 13347" transform="translate(220.471 247.281)">
            <ellipse id="Ellipse_11" data-name="Ellipse 11" cx="64.921" cy="7.713" rx="64.921" ry="7.713" transform="translate(18.881 200.534)" fill="#aeaecc" opacity="0.61"/>
            <path id="Path_12173" data-name="Path 12173" d="M348.512,315.74s1.443-5.293,11.757-7.822c8.337-2.043,26.74-6.133,26.74-6.133l27.911-31.761,5.293,4.091s-18.767,26.226-22.377,32.482-8.422,12.03-9.143,15.639-4.091,31.279-4.091,31.279-14.436,4.572-27.91,1.925c0,0-2.647-23.1-3.609-28.152,0,0-5.293,7.7-7.7,9.384s-35.851.963-35.851.963-1.925-3.85,0-5.293c0,0,24.541-2.888,27.91-3.609S348.512,315.74,348.512,315.74Z" transform="translate(-290.611 -255.591)" fill="#4fa0ff"/>
            <path id="Path_12174" data-name="Path 12174" d="M365.244,268.335s-12.512-3.836-17.8,9.991-3.85,21.769-6.5,26.341c0,0,9.865,5.293,25.5,2.887s17.084-5.534,17.084-5.534S384.734,271.221,365.244,268.335Z" transform="translate(-287.132 -255.826)" fill="#18156f"/>
            <path id="Path_12175" data-name="Path 12175" d="M387.909,369.692c-1.443-5.293-6.738-24.3-6.738-24.3s-14.436,4.572-27.91,1.925c0,0-4.572,29.115-5.775,44.032s-4.09,22.858-5.293,29.836-1.685,22.858-1.685,22.858,5.053,1.684,7.941,0c0,0,6.737-20.693,7.94-25.986s.24-11.068,2.647-17.084,10.8-30.557,10.8-30.557,10.857,29.6,10.857,35.129,13.233,36.814,13.233,36.814a9.463,9.463,0,0,0,6.978-1.2s-3.609-21.656-6.015-33.445S389.353,374.985,387.909,369.692Z" transform="translate(-287.179 -247.466)" fill="#fe95ac"/>
            <path id="Path_12176" data-name="Path 12176" d="M340.7,434.44S337,444.546,339.8,445a57.5,57.5,0,0,0,10.467,0c1.714-.18-1.624-10.556-1.624-10.556C345.75,436.124,340.7,434.44,340.7,434.44Z" transform="translate(-287.368 -237.865)" fill="#6fbdfd"/>
            <path id="Path_12177" data-name="Path 12177" d="M395.848,431.834a9.463,9.463,0,0,1-6.978,1.2s-3.119,11.789-.321,12.24a57.5,57.5,0,0,0,10.467,0C400.729,445.1,395.848,431.834,395.848,431.834Z" transform="translate(-282.125 -238.145)" fill="#6fbdfd"/>
            <path id="Path_12178" data-name="Path 12178" d="M362.011,367a18.186,18.186,0,0,0,11.068,0" transform="translate(-284.861 -245.136)" fill="none" stroke="#ff7d9f" stroke-miterlimit="10" stroke-width="1"/>
            <path id="Path_12179" data-name="Path 12179" d="M311.292,326.819s-3.128-1.985-4.662-3.069-4.421-2.8-5.414-2.436.451,1.484,1.353,2.727l.9,1.243a20.884,20.884,0,0,1-4.151-.091c-2.617-.27-4.962-.993-5.323-.451s.9,1.443,2.978,2.076,2.526,1.263,1.172,1.714-5.323.181-5.684.812.271,1.354,2.707,1.354,3.338.36,3.248.721-3.248,2.527-3.339,3.069,1.624.27,4.963-1.354c0,0,1.894-.722.812.812s-1.9,3.97.542,2.166,3.248-2.978,4.15-3.429,5.745-.572,5.745-.572S309.366,328.262,311.292,326.819Z" transform="translate(-292.369 -250.067)" fill="#ffb6d6"/>
            <path id="Path_12180" data-name="Path 12180" d="M416.241,266.589c3.156-1.954,4.3-3.259,3.794-3.472s-4.024,1.3-4.376,1.183-.177-1.071,1.124-3.131,1.028-2.98.3-3.012-2.619,3.469-3.722,4.373-1.4.184-.823-1.908.486-3.641-.164-3.626-1.294,2.385-2.463,4.741a20.888,20.888,0,0,1-2.14,3.557l-.568-1.426c-.568-1.427-.748-3.248-1.583-2.6s-.928,4-.832,5.878c.064,1.246.089,3.3.1,4.535l4.663,3.6c.61-.9,2.64-3.841,3.37-4.283.863-.522,2.289-.582,5.116-1.677s.333-1.71-1.542-1.614S416.241,266.589,416.241,266.589Z" transform="translate(-280.252 -256.996)" fill="#ffb6d6"/>
            <path id="Path_12181" data-name="Path 12181" d="M348.925,322.34l-.932-6.406-.741,8.756Z" transform="translate(-286.452 -250.641)" fill="#3c88d3"/>
            <g id="Group_13346" data-name="Group 13346" transform="translate(53.329 99.85)">
              <path id="Path_12182" data-name="Path 12182" d="M349.652,405.775c1.563-8.122,4.571-17.5,5.754-32.609.754-9.644,1.527-19.542,1.987-25.444-1.377-.133-2.76-.323-4.132-.594,0,0-4.572,29.115-5.775,44.032S343.4,414.018,342.193,421s-1.685,22.858-1.685,22.858a17.226,17.226,0,0,0,3.738.713C345.349,435.893,348.383,412.361,349.652,405.775Z" transform="translate(-340.508 -347.128)" fill="#e8809c"/>
              <path id="Path_12183" data-name="Path 12183" d="M383.995,409.749c-4.55-15.616-8.8-25.53-10.586-31.012s-6.429-10.758-6.429-10.758,10.857,29.6,10.857,35.129,13.233,36.814,13.233,36.814a8.961,8.961,0,0,0,2.346.2C391.5,434.216,387.365,421.319,383.995,409.749Z" transform="translate(-337.654 -344.88)" fill="#e8809c"/>
            </g>
          </g>
          <g id="Group_13348" data-name="Group 13348" transform="translate(528.659 91.333)">
            <rect id="Rectangle_4799" data-name="Rectangle 4799" width="16.558" height="6.746" transform="translate(20.532 5.786) rotate(42.322)" fill="#4549c3"/>
            <path id="Path_12184" data-name="Path 12184" d="M595.622,133.948l-6.122-5.575-15.484,17,1.478,1.345a4.14,4.14,0,1,0,3.167,2.885l1.477,1.345Z" transform="translate(-570.563 -114.915)" fill="#2b284f"/>
            <path id="Path_12185" data-name="Path 12185" d="M592.883,125.831s2.411-8.795,6.392-9.524,7.113,3.574,5.3,6.481-7.833,6.553-7.833,6.553Z" transform="translate(-568.157 -116.225)" fill="#4549c3"/>
          </g>
          <path id="Path_12186" data-name="Path 12186" d="M649.384,185.577v-7.219H645.2a15.445,15.445,0,0,0-1.813-4.415l2.95-2.95-5.1-5.1-2.908,2.907a15.446,15.446,0,0,0-4.457-1.9v-4.059h-7.219V166.8a15.45,15.45,0,0,0-4.6,1.853l-2.765-2.765-5.1,5.1,2.715,2.715a15.456,15.456,0,0,0-1.956,4.65h-3.81v7.219h3.8a15.461,15.461,0,0,0,1.952,4.662l-2.7,2.7,5.1,5.1,2.745-2.745a15.454,15.454,0,0,0,4.62,1.866V201.1h7.219v-4.027a15.476,15.476,0,0,0,4.477-1.912l2.888,2.888,5.1-5.1L643.4,190a15.442,15.442,0,0,0,1.809-4.427Zm-19.129,3.489a7.1,7.1,0,1,1,7.1-7.1A7.1,7.1,0,0,1,630.256,189.065Z" transform="translate(-37.531 -19.866)" fill="#dadaf2"/>
          <path id="Path_12187" data-name="Path 12187" d="M131.612,209.39v-7.219h-4.188a15.442,15.442,0,0,0-1.812-4.415l2.95-2.95-5.1-5.1-2.908,2.907a15.476,15.476,0,0,0-4.457-1.9v-4.059h-7.219v3.963a15.434,15.434,0,0,0-4.6,1.853L101.51,189.7l-5.1,5.1,2.715,2.715a15.453,15.453,0,0,0-1.955,4.649H93.355v7.219h3.8a15.459,15.459,0,0,0,1.952,4.662l-2.7,2.7,5.1,5.1,2.745-2.745a15.453,15.453,0,0,0,4.62,1.866v3.931h7.219v-4.027a15.476,15.476,0,0,0,4.477-1.912l2.888,2.888,5.1-5.1-2.938-2.938a15.477,15.477,0,0,0,1.809-4.427Zm-19.129,3.489a7.1,7.1,0,1,1,7.1-7.1A7.1,7.1,0,0,1,112.484,212.878Z" transform="translate(-93.355 -17.299)" fill="#dadaf2"/>
          <path id="Path_12188" data-name="Path 12188" d="M322.286,55.489v-5.68h-3.3a12.159,12.159,0,0,0-1.426-3.474l2.321-2.321L315.869,40l-2.289,2.288a12.152,12.152,0,0,0-3.506-1.494V37.6h-5.68v3.117a12.153,12.153,0,0,0-3.619,1.459L298.6,40l-4.017,4.016,2.137,2.137a12.177,12.177,0,0,0-1.539,3.658h-3v5.68h2.991a12.2,12.2,0,0,0,1.535,3.668l-2.127,2.127L298.6,65.3l2.16-2.16a12.133,12.133,0,0,0,3.635,1.468V67.7h5.68V64.531a12.146,12.146,0,0,0,3.522-1.5l2.273,2.272,4.016-4.016-2.312-2.312A12.144,12.144,0,0,0,319,55.489Zm-15.052,2.745a5.585,5.585,0,1,1,5.586-5.586A5.585,5.585,0,0,1,307.234,58.234Z" transform="translate(-71.918 -33.369)" fill="#dadaf2"/>
          <circle id="Ellipse_12" data-name="Ellipse 12" cx="14.901" cy="14.901" r="14.901" transform="translate(219.428 188.166) rotate(-45)" fill="#dadaf2"/>
          <circle id="Ellipse_13" data-name="Ellipse 13" cx="14.901" cy="14.901" r="14.901" transform="translate(227.496 188.166) rotate(-45)" fill="none" stroke="#3c46b6" stroke-miterlimit="10" stroke-width="1"/>
          <g id="Group_13350" data-name="Group 13350" transform="translate(450.995 360.423)">
            <g id="Group_13349" data-name="Group 13349">
              <path id="Path_12189" data-name="Path 12189" d="M501.578,410.7s-3.765-5.021,2.51-11.3c0,0-3.629-21.253,18.043-24.115,0,0,4.089-14.312,16.356-15.948s22.081,6.134,24.944,16.766c0,0,9.405-3.271,17.992,2.454s7.769,17.582,7.769,17.582,9.405,3.353,5.725,14.558Z" transform="translate(-500.458 -359.126)" fill="#3c46b6"/>
            </g>
            <path id="Path_12190" data-name="Path 12190" d="M522.971,393.608a20.973,20.973,0,0,1,11.3-11.912c-1.174-11.82,3.626-18.7,8.289-22.54a24.315,24.315,0,0,0-4.071.187c-12.267,1.636-16.356,15.948-16.356,15.948-21.672,2.861-18.043,24.115-18.043,24.115-6.276,6.276-2.51,11.3-2.51,11.3H527.6C522.777,406.112,520.722,399.621,522.971,393.608Z" transform="translate(-500.458 -359.125)" fill="#2d3991"/>
          </g>
          <g id="Group_13354" data-name="Group 13354" transform="translate(2.639 221.386)">
            <g id="Group_13351" data-name="Group 13351" transform="translate(10.038 87.399)">
              <rect id="Rectangle_4800" data-name="Rectangle 4800" width="14.437" height="112.938" transform="translate(1.111 18.557) rotate(-3.603)" fill="#4549c3"/>
              <rect id="Rectangle_4801" data-name="Rectangle 4801" width="14.437" height="6.136" transform="matrix(0.998, -0.063, 0.063, 0.998, 0.726, 12.434)" fill="#d7dcff"/>
              <path id="Rectangle_4802" data-name="Rectangle 4802" d="M5.537,0H8.9a5.536,5.536,0,0,1,5.536,5.536v6.013a0,0,0,0,1,0,0H0a0,0,0,0,1,0,0V5.537A5.537,5.537,0,0,1,5.537,0Z" transform="translate(0 0.907) rotate(-3.602)" fill="#fe95ac"/>
              <path id="Path_12191" data-name="Path 12191" d="M116.916,441.752l-7.1-112.715-4.018.253,7.1,112.715,14.408-.907h0Z" transform="translate(-104.69 -310.733)" fill="#3341a0"/>
              <path id="Path_12192" data-name="Path 12192" d="M109.861,329.633l-.386-6.124-4.022.253.386,6.124,14.408-.907h0Z" transform="translate(-104.727 -311.329)" fill="#b9c2ea"/>
              <path id="Path_12193" data-name="Path 12193" d="M109.257,319.319a6.132,6.132,0,0,1,5-6.412,6.207,6.207,0,0,0-1.213-.044l-2.165.136a6.134,6.134,0,0,0-5.736,6.507l.34,5.405,4.106-.258Z" transform="translate(-104.762 -312.478)" fill="#e57693"/>
            </g>
            <g id="Group_13353" data-name="Group 13353" transform="translate(43.512 98.267)">
              <rect id="Rectangle_4803" data-name="Rectangle 4803" width="14.437" height="112.938" transform="matrix(-0.971, -0.239, 0.239, -0.971, 14.018, 132.09)" fill="#f36290"/>
              <path id="Path_12194" data-name="Path 12194" d="M173.417,344.754l-1.908-22.431L159.4,341.3Z" transform="translate(-132.385 -322.324)" fill="#d7dcff"/>
              <g id="Group_13352" data-name="Group 13352" transform="translate(0 18.977)">
                <path id="Path_12195" data-name="Path 12195" d="M144.507,440.78l3.5.863h0Z" transform="translate(-133.991 -328.53)" fill="#d85082"/>
                <path id="Path_12196" data-name="Path 12196" d="M168.527,341.055l3.1.764-9.6-2.365-27.014,109.66,6.5,1.6Z" transform="translate(-135.014 -339.454)" fill="#d85082"/>
              </g>
              <path id="Path_12197" data-name="Path 12197" d="M165.9,342.9l5.611-20.578L159.4,341.3Z" transform="translate(-132.385 -322.324)" fill="#b9c2ea"/>
            </g>
            <rect id="Rectangle_4804" data-name="Rectangle 4804" width="25.3" height="228.632" transform="translate(32.654)" fill="#9281ff"/>
            <rect id="Rectangle_4805" data-name="Rectangle 4805" width="9.723" height="228.632" transform="translate(32.654)" fill="#7a6cf1"/>
            <path id="Path_12198" data-name="Path 12198" d="M106.926,457.871s30.678,9.023,69.656,0L187.049,359.7H95.737Z" transform="translate(-95.737 -220.027)" fill="#5b65d7"/>
            <path id="Path_12199" data-name="Path 12199" d="M110.78,387.834a149.9,149.9,0,0,1-8.766-28.132H95.737l11.189,98.169s30.678,9.023,69.656,0C133.717,447.259,121.758,414.106,110.78,387.834Z" transform="translate(-95.737 -220.027)" fill="#3c49aa"/>
          </g>
        </g>
      </g>
    </g>
  </g>
</svg>
